<?xml version="1.0" encoding="utf-8"?>
<!-- Generator: Adobe Illustrator 27.0.1, SVG Export Plug-In . SVG Version: 6.00 Build 0)  -->
<svg version="1.1" id="Layer_1" xmlns="http://www.w3.org/2000/svg" xmlns:xlink="http://www.w3.org/1999/xlink" x="0px" y="0px"
	 viewBox="0 0 486.13 252.78" style="enable-background:new 0 0 486.13 252.78;" xml:space="preserve">
<path d="M105.95,103.6l-12.73,38.29c-0.95,2.86-3.63,4.8-6.65,4.8H75.13c-2.39,0-4.07-2.33-3.33-4.6l8.19-24.87
	c0.75-2.27-0.94-4.6-3.33-4.6h-0.89c-1.51,0-2.85,0.97-3.32,2.4l-3.79,11.4c-0.48,1.43-1.81,2.4-3.32,2.4h-1.57
	c-2.39,0-4.08-2.34-3.33-4.6l3.23-9.74c0.31-0.95-0.44-1.93-1.46-1.85c-0.58,0.05-1.05,0.47-1.24,1.02l-9.39,28.24
	c-0.01,0.04-0.03,0.08-0.04,0.12l-0.27,0.8c-0.77,2.31-2.93,3.87-5.37,3.87c-0.13,0-0.26-0.01-0.39-0.02c-0.19,0.02-12,0.08-12,0.08
	c-2.4,0.02-4.11-2.32-3.36-4.6l14.93-45.35c0.47-1.44,1.81-2.41,3.33-2.41h12.56c4.42,0,7.54,4.33,6.16,8.52l1.24-3.72
	c0.95-2.86,3.63-4.8,6.65-4.8H99.3C104.08,94.39,107.46,99.07,105.95,103.6z M277.71,94.35h-11.34c-3.03,0-5.71,1.94-6.66,4.81
	l-11.16,33.9c-0.95,2.87-3.63,4.81-6.65,4.81h-16.15c-0.76,0-1.46-0.55-1.54-1.31c-0.09-0.87,0.6-1.61,1.45-1.61h9.17
	c1.51,0,2.85-0.97,3.32-2.4l11.17-33.6c0.75-2.27-0.93-4.61-3.33-4.61h-11.3c-3.02,0-5.71,1.94-6.65,4.81l-14.15,42.98
	c-0.75,2.27,0.94,4.6,3.33,4.6h43.01c2.72,0,5.16-1.58,6.31-3.98c0.13-0.27,0.25-0.54,0.34-0.83l14.15-42.98
	C281.79,96.68,280.1,94.35,277.71,94.35z M335.19,94.35h-43.01c-3.03,0-5.71,1.94-6.65,4.81l-3.4,10.33
	c-0.75,2.27,0.94,4.6,3.33,4.6h30.8l-37.29,13.56c-2.02,0.73-3.59,2.35-4.26,4.39l-3.32,10.09c-0.75,2.27,0.94,4.6,3.33,4.6h43.01
	c3.02,0,5.71-1.94,6.65-4.81l2.8-8.51c0.75-2.27-0.94-4.6-3.33-4.6h-21.73l-20.08,7.4c-0.72,0.26-1.56-0.01-1.89-0.7
	c-0.38-0.79,0-1.72,0.81-2.01l49.42-18.25c2-0.74,3.56-2.35,4.23-4.38l3.93-11.94C339.27,96.68,337.58,94.35,335.19,94.35z
	 M384.53,94.35h-11.41c-3.02,0-5.71,1.94-6.65,4.81l-3.4,10.33c-0.75,2.27,0.94,4.6,3.33,4.6h6.94c0.78,0,1.49,0.56,1.56,1.33
	c0.08,0.86-0.6,1.59-1.45,1.59h-28.57c-0.86,0-1.54-0.74-1.45-1.61c0.08-0.76,0.77-1.31,1.54-1.31h7.44c3.02,0,5.71-1.94,6.65-4.81
	l3.4-10.33c0.75-2.27-0.94-4.6-3.33-4.6h-11.34c-3.03,0-5.71,1.94-6.66,4.81l-5.76,17.51c-1.49,4.53,1.88,9.2,6.65,9.2h10.93
	c2.39,0,4.07,2.33,3.33,4.6l-3.84,11.67c-0.75,2.27,0.94,4.6,3.33,4.6h11.27c3.02,0,5.71-1.94,6.65-4.81l14.18-42.98
	C388.6,96.68,386.92,94.35,384.53,94.35z M94.7,62.46c11.87,3.3,14.71,6.5,16.56,18.68c0.13,0.84,1.31,0.91,1.54,0.09
	c3.3-11.87,6.5-14.71,18.68-16.56c0.84-0.13,0.91-1.31,0.09-1.54c-11.87-3.3-14.71-6.5-16.56-18.68c-0.13-0.84-1.31-0.91-1.54-0.09
	c-3.3,11.87-6.5,14.71-18.68,16.56C93.95,61.05,93.88,62.24,94.7,62.46z M141.32,57.02c5.29,1.48,6.55,2.92,7.36,8.35
	c0.06,0.37,0.58,0.41,0.69,0.04c1.48-5.29,2.92-6.55,8.35-7.36c0.37-0.06,0.41-0.58,0.04-0.69c-5.29-1.48-6.55-2.92-7.36-8.35
	c-0.06-0.37-0.58-0.41-0.69-0.04c-1.48,5.29-2.92,6.55-8.35,7.36C140.99,56.39,140.96,56.92,141.32,57.02z M224.62,196.35
	c-5.29-1.48-6.55-2.92-7.36-8.35c-0.06-0.37-0.58-0.41-0.69-0.04c-1.48,5.29-2.92,6.55-8.35,7.36c-0.37,0.06-0.41,0.58-0.04,0.69
	c5.29,1.48,6.55,2.92,7.36,8.35c0.06,0.37,0.58,0.41,0.69,0.04c1.48-5.29,2.92-6.55,8.35-7.36
	C224.95,196.98,224.99,196.45,224.62,196.35z M150.77,88.53c37.67-39.47,83.52-56.54,103.5-38.13c2.08,1.93,3.79,4.18,5.16,6.7
	c-1.95-5.87-5.13-10.72-9.66-14.2c-21.65-16.69-65.58,3.68-100.23,45.62H150.77z M256.93,33.38c13.23,10.2,16.52,30.64,11.1,55.15
	h6.86c6.65-23.69,4.68-43.74-7.53-54.57c-8.44-7.49-20.67-9.59-34.93-7.07C241.95,26.27,250.35,28.31,256.93,33.38z M151.15,76.05
	c-3.49,3.49-6.92,7.14-10.29,10.94c-0.46,0.51-0.89,1.01-1.33,1.53h0.98C143.97,84.17,147.52,80.01,151.15,76.05z M264.76,169.94
	h-5.04c-1.35,0-2.54,0.86-2.96,2.14l-2.61,7.93c0,0-0.01,0-0.01,0.01h-9.42c-0.35,0-0.66-0.25-0.69-0.59
	c-0.03-0.38,0.27-0.71,0.65-0.71h4.08c0.67,0,1.27-0.43,1.48-1.06l1.9-5.67c0.34-1.01-0.42-2.05-1.48-2.05h-5.02
	c-1.35,0-2.54,0.86-2.96,2.14l-5,15.18c-0.33,1.01,0.42,2.05,1.48,2.05h19.13c1.21,0,2.3-0.7,2.81-1.77
	c0.06-0.12,0.11-0.24,0.15-0.37l5-15.18C266.57,170.98,265.82,169.94,264.76,169.94z M290.5,169.94h-19.13
	c-1.21,0-2.3,0.7-2.81,1.77c-0.06,0.12-0.11,0.24-0.15,0.37l-5,15.18c-0.33,1.01,0.42,2.05,1.48,2.05h5.04
	c1.35,0,2.54-0.86,2.96-2.14l3.01-9.11h9.44c0.34,0,0.65,0.24,0.68,0.58c0.04,0.39-0.26,0.72-0.65,0.72h-4.08
	c-0.67,0-1.26,0.43-1.48,1.06l-2.29,6.84c-0.34,1.01,0.42,2.05,1.48,2.05h5.02c1.35,0,2.54-0.86,2.96-2.14l5-15.18
	C292.31,170.98,291.56,169.94,290.5,169.94z M294.64,176.08h4.49c0.67,0,1.27-0.43,1.48-1.07l1-2.98c0.33-1.01-0.42-2.05-1.48-2.05
	h-3.36c-1.35,0-2.54,0.86-2.96,2.14l-0.64,1.91C292.83,175.04,293.58,176.08,294.64,176.08z M301.67,183.57h-3.8l0.33-1
	c0.33-1.01-0.42-2.05-1.48-2.05h-3.32c-1.35,0-2.54,0.86-2.96,2.14l-1.51,4.6c-0.33,1.01,0.42,2.05,1.48,2.05h10.41
	c0.67,0,1.27-0.43,1.48-1.07l0.86-2.62C303.48,184.6,302.73,183.57,301.67,183.57z M327.98,169.94h-5.04
	c-1.35,0-2.54,0.86-2.96,2.14l-1.91,5.8c-0.42,1.28-1.62,2.14-2.96,2.14h-7.18c-0.34,0-0.65-0.24-0.68-0.58
	c-0.04-0.39,0.27-0.72,0.65-0.72h4.08c0.67,0,1.27-0.43,1.48-1.06l1.9-5.67c0.33-1.01-0.42-2.05-1.48-2.05h-5.02
	c-1.35,0-2.54,0.86-2.96,2.14l-1.31,3.98c-0.21,0.63-0.21,1.32,0,1.95l3.01,9.15c0.42,1.28,1.61,2.14,2.96,2.14h10.95
	c1.21,0,2.3-0.7,2.81-1.77c0.06-0.12,0.11-0.24,0.15-0.37l5-15.18C329.79,170.98,329.04,169.94,327.98,169.94z M351.57,169.98
	h-16.98c-1.35,0-2.54,0.86-2.96,2.14l-4.98,15.14c-0.33,1.01,0.42,2.05,1.48,2.05h19.13c1.35,0,2.54-0.86,2.96-2.14
	c0.31-0.93-0.38-1.88-1.36-1.88h-11.91v0c-0.69,0-1.17-0.67-0.96-1.33l1.37-4.12c0.21-0.64,0.81-1.07,1.48-1.07h3.76
	c0.53,0,0.91,0.52,0.74,1.02l-0.17,0.5c-0.21,0.64-0.81,1.07-1.48,1.07h-2.34c-0.67,0-1.27,0.43-1.48,1.08l-0.18,0.56
	c-0.16,0.5,0.21,1.02,0.74,1.02H349c1.35,0,2.54-0.86,2.96-2.14l2.57-7.8C355.19,172.06,353.69,169.98,351.57,169.98z
	 M358.95,179.91h14.25c0.67,0,1.27-0.43,1.48-1.07l2.26-6.84c0.33-1.01-0.42-2.05-1.48-2.05h-16.31c-0.73,0-1.38,0.47-1.61,1.17
	l-5.32,16.15c-0.33,1.01,0.42,2.03,1.48,2.03h5.07c1.34-0.01,2.52-0.88,2.94-2.16l1.28-3.9c0.33-1.01-0.42-2.04-1.48-2.04h-2.6
	c-0.38,0-0.68-0.33-0.65-0.72C358.3,180.15,358.61,179.91,358.95,179.91z M396.78,181.31h-15.59c-0.48,0-0.82-0.47-0.67-0.93
	c0.09-0.29,0.37-0.49,0.67-0.49h17.08c0.67,0,1.27-0.43,1.48-1.07l2.26-6.84c0.33-1.01-0.42-2.05-1.48-2.05h-19.16
	c-1.33,0-2.52,0.85-2.95,2.11l-3.37,9.86c-0.35,1.01,0.41,2.06,1.47,2.06h11.17c0.38,0,0.71,0.32,0.67,0.7
	c-0.04,0.33-0.31,0.57-0.63,0.57h-12.5c-0.67,0-1.27,0.43-1.48,1.07l-0.31,0.95c-0.33,1.01,0.42,2.05,1.48,2.05h19.14
	c1.35,0,2.54-0.86,2.96-2.14l1.25-3.8C398.59,182.35,397.84,181.31,396.78,181.31z M424.02,169.98h-16.98
	c-1.35,0-2.54,0.86-2.96,2.14l-4.98,15.14c-0.33,1.01,0.42,2.05,1.48,2.05h19.13c1.35,0,2.54-0.86,2.96-2.14
	c0.31-0.93-0.38-1.88-1.36-1.88H409.4v0c-0.69,0-1.17-0.67-0.96-1.33l1.37-4.12c0.21-0.64,0.81-1.07,1.48-1.07h3.76
	c0.53,0,0.91,0.52,0.74,1.02l-0.17,0.5c-0.21,0.64-0.81,1.07-1.48,1.07h-2.34c-0.67,0-1.27,0.43-1.48,1.08l-0.18,0.56
	c-0.16,0.5,0.21,1.02,0.74,1.02h10.56c1.35,0,2.54-0.86,2.96-2.14l2.57-7.8C427.64,172.06,426.14,169.98,424.02,169.98z
	 M463.29,105.63c-0.53,0.67-1.42,0.86-2.18,0.46l-5.61-3.02c-0.1,0.62-0.23,1.24-0.43,1.85l-14.95,45.39
	c-1.62,4.93-6.21,8.25-11.4,8.25h-12.56c-3.74,0-7.29-1.76-9.55-4.73c-2.23,2.93-5.72,4.73-9.56,4.73h-13.88
	c-2.55,0-5.01-0.82-7.04-2.3c-2.43,1.49-5.24,2.3-8.12,2.3h-11.27c-3.84,0-7.48-1.86-9.73-4.97s-2.88-7.14-1.68-10.79l1.68-5.11
	l-5.36,0c-4.15,0-5.03,0.53-5.42,1.71l-2.8,8.5c-2.1,6.38-8.02,10.66-14.73,10.66H275.7c-2.4,0-4.76-0.74-6.74-2.09
	c-2.35,1.36-5.03,2.09-7.73,2.09h-25.18c-2.02,2.46-4.09,4.91-6.25,7.34c-3.26,3.68-6.58,7.2-9.94,10.58
	c3.79-4.23,7.49-8.7,11.09-13.37c1.17-1.51,2.31-3.03,3.43-4.55h-8.46c-35.16,44.96-81.45,67.38-103.87,50.1
	c-3.98-3.07-6.92-7.2-8.91-12.16c0.95,1.27,1.98,2.45,3.14,3.51c20.42,18.84,67.85,0.6,105.95-40.71c0.23-0.25,0.45-0.5,0.67-0.75
	h-4.68c-2.53,0-4.98-0.81-7-2.26c-2.42,1.47-5.21,2.26-8.07,2.26h-32.22l-6.76,17.56c-0.33,0.85-1.1,1.37-1.97,1.37
	c-0.14,0-0.29-0.01-0.44-0.04c-1.04-0.21-1.74-1.09-1.71-2.15l0.43-16.73h-0.34c-2.4,0-4.75-0.74-6.73-2.08
	c-2.35,1.35-5.03,2.08-7.75,2.08h-42.88c-7.54,27.5-5.05,51.65,9.35,62.74c3.54,2.74,7.62,4.59,12.1,5.62
	c-8.28-0.49-15.43-3.09-20.95-7.99c-13.1-11.62-14.43-35.45-5.94-61.63c-0.6-0.3-1.19-0.65-1.73-1.04
	c-2.41,1.46-5.19,2.25-8.04,2.25H76.13c-3.84,0-7.48-1.86-9.73-4.97c-2.25-3.11-2.88-7.15-1.68-10.79l0.69-2.1h-0.65
	c-0.56,0-1.12-0.04-1.67-0.12l-2.76,8.28c-1.93,5.8-7.33,9.7-13.44,9.7c-0.23,0-0.45-0.01-0.68-0.02c-1.1,0.01-3.92,0.03-11.67,0.07
	c-3.91,0-7.55-1.86-9.8-4.97c-2.25-3.11-2.88-7.15-1.68-10.79L38,97.45c1.62-4.94,6.21-8.25,11.4-8.25h12.56
	c2.46,0,4.84,0.58,6.97,1.7c2.18-1.12,4.59-1.7,7.07-1.7h24.29c3.66,0,7.12,1.28,9.88,3.58c2.76-2.33,6.26-3.62,9.96-3.62h38.17
	c3.53,0,6.92,1.21,9.64,3.38c2.72-2.18,6.12-3.38,9.68-3.38h38.17c3.63,0,7.17,1.32,9.94,3.63c2.76-2.34,6.27-3.63,9.98-3.63H247
	c3.66,0,7.14,1.69,9.41,4.54c2.87-2.85,6.8-4.54,10.96-4.54h11.34c2.4,0,4.75,0.74,6.73,2.08c2.35-1.35,5.03-2.08,7.75-2.08h43.01
	c2.04,0,4.06,0.54,5.85,1.54c2.09-1.01,4.39-1.54,6.73-1.54h11.34c2.34,0,4.59,0.67,6.51,1.92c2.28-1.26,4.83-1.92,7.49-1.92h11.41
	c2.55,0,5.01,0.82,7.05,2.3c2.43-1.49,5.23-2.3,8.09-2.3h37.39l-3.5-3.87c-0.57-0.64-0.61-1.55-0.08-2.22
	c0.53-0.67,1.42-0.86,2.18-0.46l11.56,6.22l9.73-8.8c0.63-0.57,1.55-0.61,2.22-0.08s0.86,1.42,0.46,2.18l-6.22,11.56l8.8,9.73
	C463.78,104.04,463.82,104.96,463.29,105.63z M169.76,156.03c0.32-0.84,1.16-1.39,2.04-1.37l20.74,0.54c0.05,0,0.11,0,0.13-0.11
	c0.02-0.11-0.03-0.13-0.08-0.15l-19.36-7.46c-0.84-0.32-1.39-1.15-1.37-2.05l0.54-20.74c0-0.05,0-0.11-0.11-0.13
	c-0.11-0.02-0.13,0.03-0.15,0.08l-7.46,19.36c-0.32,0.84-1.14,1.38-2.04,1.37l-20.74-0.54c-0.01,0-0.01,0-0.02,0
	c-0.05,0-0.1,0.01-0.11,0.11c-0.02,0.11,0.03,0.13,0.08,0.15l19.36,7.46c0.84,0.32,1.39,1.15,1.37,2.04l-0.54,20.74
	c0,0.05,0,0.11,0.11,0.13c0.11,0.02,0.13-0.03,0.15-0.08L169.76,156.03z M178.44,137.83l-0.01,0.05h18.4l2.2-6.69
	c0.47-1.44,1.82-2.41,3.33-2.41h3.8l6.91-20.97c0.75-2.27-0.94-4.6-3.33-4.6H195c-3.02,0-5.7,1.93-6.65,4.8l-8.94,26.91h-5.27
	l-0.08,2.92H178.44z M450.8,100.54l-1.25-0.67l-5.49,4.97l-13,39.49c-0.47,1.44-1.81,2.41-3.33,2.41h-12.56
	c-2.4,0-4.09-2.35-3.32-4.63l7.93-23.42c0.75-2.27-0.94-4.6-3.33-4.6h-21.29c-0.66,0-1.23,0.44-1.41,1.07
	c-0.25,0.93,0.44,1.84,1.41,1.84h19.67c1.19,0,2.04,1.17,1.66,2.3l-1.37,4.16c-0.47,1.44-1.81,2.41-3.33,2.41H408
	c-1.51,0-2.85,0.97-3.33,2.41l-5.29,16.05c-0.47,1.44-1.82,2.41-3.33,2.41h-13.88c-2.39,0-4.07-2.33-3.33-4.6l14.15-42.98
	c0.09-0.29,0.21-0.56,0.34-0.83c1.15-2.41,3.59-3.98,6.32-3.98h43.01c0.03,0,0.05,0,0.08,0.01l-2.4-2.65h-40.69
	c-2.78,0-5.49,1.01-7.63,2.86c-0.41,0.36-1.04,0.32-1.4-0.09c-1.56-1.75-3.78-2.76-6.11-2.76h-11.41c-2.57,0-5.01,0.82-7.05,2.36
	c-0.39,0.3-0.94,0.27-1.3-0.08c-1.51-1.45-3.58-2.28-5.66-2.28h-11.34c-2.24,0-4.43,0.64-6.32,1.86c-0.36,0.23-0.83,0.21-1.17-0.06
	c-1.46-1.16-3.27-1.8-5.1-1.8h-43.01c-2.64,0-5.23,0.91-7.29,2.56c-0.4,0.32-0.98,0.29-1.34-0.08c-1.54-1.58-3.67-2.48-5.85-2.48
	h-11.34c-4.53,0-8.56,2.53-10.52,6.6c-0.19,0.38-0.6,0.6-1.01,0.56c-0.42-0.05-0.77-0.36-0.86-0.77c-0.24-1.09-0.7-2.1-1.34-2.99
	c-1.53-2.12-4.01-3.39-6.63-3.39h-11.3c-3.61,0-6.95,1.63-9.18,4.47c-0.19,0.24-0.48,0.38-0.79,0.38c0,0,0,0,0,0
	c-0.31,0-0.6-0.14-0.79-0.38c-2.2-2.8-5.63-4.47-9.16-4.47h-38.17c-3.44,0-6.69,1.51-8.91,4.13c-0.19,0.22-0.47,0.35-0.76,0.35
	c0,0,0,0,0,0c-0.29,0-0.57-0.13-0.76-0.35c-2.23-2.63-5.47-4.13-8.88-4.13h-38.17c-3.6,0-6.94,1.62-9.16,4.45
	c-0.19,0.24-0.48,0.38-0.78,0.38c0,0,0,0,0,0c-0.3,0-0.59-0.14-0.78-0.38c-2.2-2.76-5.61-4.41-9.11-4.41H75.01
	c-2.34,0-4.6,0.69-6.54,2c-0.34,0.23-0.79,0.23-1.13-0.01c-1.86-1.3-4.06-1.99-6.38-1.99H48.41c-3.54,0-6.66,2.26-7.76,5.62
	L25.71,142.7c-0.82,2.48-0.39,5.23,1.14,7.35c1.53,2.12,4.01,3.38,6.62,3.38c8.07-0.04,10.79-0.06,11.8-0.07
	c0.26,0.01,0.44,0.02,0.62,0.02c4.46,0,8.4-2.84,9.8-7.07l3.6-10.81c0.09-0.26,0.28-0.48,0.53-0.59c0.25-0.11,0.54-0.12,0.8-0.01
	c1,0.42,2.05,0.63,3.13,0.63h1.57c0.98,0,1.93-0.17,2.84-0.51c0.36-0.13,0.76-0.05,1.04,0.22c0.28,0.27,0.38,0.67,0.26,1.03
	l-2.11,6.39c-0.82,2.48-0.39,5.23,1.14,7.35c1.53,2.12,4.01,3.38,6.62,3.38h11.44c2.78,0,5.48-0.99,7.59-2.8
	c0.41-0.35,1.04-0.31,1.4,0.1c0.91,1.02,2.05,1.78,3.29,2.24c0.15-0.41,0.29-0.81,0.44-1.22l5.32,0.71
	c-0.11,0.34-0.21,0.68-0.32,1.02h40.37c2.54,0,5.03-0.85,7.06-2.39l-10.59-4.08c-0.16-0.06-0.3-0.14-0.43-0.23h-39.05
	c-2.39,0-4.07-2.33-3.33-4.6l14.15-42.98c0.95-2.87,3.63-4.81,6.65-4.81h38.17c4.77,0,8.15,4.67,6.65,9.2l-1.89,5.73
	c-0.95,2.87-3.63,4.81-6.65,4.81h-39.29c-0.86,0-1.54,0.74-1.45,1.61c0.08,0.76,0.77,1.31,1.54,1.31h38.47
	c2.39,0,4.07,2.33,3.33,4.6l-0.61,1.86c-0.47,1.44-1.81,2.41-3.33,2.41h-27.86c-0.74,0-1.38,0.56-1.45,1.32
	c-0.09,0.87,0.65,1.6,1.53,1.6h13.08c1.45,0,2.55,1.39,2.11,2.77c0,0.01-0.75,2.27-0.75,2.27h8.54c1.77,0,3.15,1.28,3.44,2.86
	c0.08,0.42,0.04,0.86-0.09,1.27c0,0.01-1.3,3.96-1.3,3.96c-0.13,0.4-0.31,0.79-0.51,1.15l4.82,0.12c0-0.35,0.06-0.7,0.18-1.06
	l14.15-42.98c0.95-2.87,3.63-4.81,6.65-4.81h38.17c4.77,0,8.15,4.67,6.66,9.2l-12.64,38.38c-0.95,2.87-3.63,4.81-6.65,4.81h-25.3
	l16.46,6.34c0.23,0.09,0.42,0.21,0.6,0.35h8.24c2.79,0,5.49-1,7.6-2.81c0.41-0.35,1.03-0.31,1.39,0.09
	c1.55,1.73,3.77,2.72,6.08,2.72h43.01c2.61,0,5.2-0.91,7.28-2.57c0.4-0.32,0.98-0.29,1.34,0.08c1.54,1.58,3.67,2.49,5.86,2.49h43.01
	c5.05,0,9.51-3.22,11.09-8.02l2.8-8.51c1.45-4.36,5.85-4.35,9.74-4.34l8.6,0c0.32,0,0.62,0.15,0.81,0.41
	c0.19,0.26,0.24,0.59,0.14,0.9l-2.91,8.83c-0.82,2.48-0.39,5.23,1.14,7.34c1.53,2.12,4.01,3.38,6.62,3.38h11.27
	c2.81,0,5.53-1.01,7.65-2.85c0.19-0.16,0.42-0.24,0.65-0.24c0.28,0,0.55,0.11,0.75,0.34c1.56,1.76,3.78,2.76,6.11,2.76h13.88
	c3.54,0,6.66-2.26,7.76-5.62l1.28-3.88c0.16-0.49,0.66-0.77,1.16-0.66c0.5,0.11,0.84,0.58,0.78,1.09c-0.22,2.01,0.3,4.02,1.48,5.66
	c1.53,2.14,4.01,3.41,6.64,3.41h12.56c3.54,0,6.66-2.26,7.76-5.62l14.95-45.39C450.64,101.81,450.75,101.18,450.8,100.54z
	 M460.67,103.57l-7.87-8.7c-0.49-0.54-0.59-1.33-0.24-1.98l5.56-10.33l-8.7,7.87c-0.54,0.49-1.33,0.58-1.98,0.24l-10.33-5.56
	l7.87,8.7c0.49,0.54,0.59,1.33,0.24,1.98l-5.56,10.33l8.7-7.87c0.54-0.49,1.33-0.59,1.98-0.24L460.67,103.57z"/>
</svg>
